<?xml version="1.0" encoding="UTF-8" ?>
<!DOCTYPE svg PUBLIC "-//W3C//DTD SVG 1.1//EN" "http://www.w3.org/Graphics/SVG/1.1/DTD/svg11.dtd">
<svg width="1536pt" height="1024pt" viewBox="0 0 1536 1024" version="1.1" xmlns="http://www.w3.org/2000/svg">
<g id="#008de9fe">
<path fill="#008de9" opacity="1.00" d=" M 773.17 378.09 C 784.08 378.08 794.98 378.15 805.89 378.06 C 805.82 431.38 805.91 484.70 805.87 538.02 C 805.80 554.32 805.83 570.63 806.89 586.90 C 796.21 586.84 785.53 586.94 774.85 586.87 C 774.04 581.57 774.25 576.20 773.97 570.87 C 764.98 581.91 751.19 588.55 737.11 589.81 C 730.05 589.81 722.88 590.43 715.93 588.86 C 699.81 586.15 685.26 576.39 675.91 563.09 C 666.97 549.56 662.84 533.17 663.17 517.03 C 662.86 499.86 666.84 482.03 677.21 468.05 C 686.09 455.42 699.96 446.42 715.11 443.48 C 725.63 441.55 736.57 441.63 747.03 443.91 C 756.90 446.43 766.26 451.67 773.14 459.24 C 773.40 432.20 773.35 405.14 773.17 378.09 M 729.21 470.29 C 719.33 471.73 710.52 477.98 705.48 486.54 C 697.48 499.34 696.16 515.46 699.15 530.02 C 701.54 542.02 708.92 553.61 720.27 558.84 C 738.01 566.67 761.06 561.39 772.59 545.49 C 773.49 544.17 773.12 542.46 773.27 540.98 C 773.21 523.57 773.54 506.15 773.15 488.74 C 771.35 484.65 767.55 481.88 764.08 479.27 C 754.36 471.63 741.39 468.38 729.21 470.29 Z" />
<path fill="#008de9" opacity="1.00" d=" M 407.28 446.37 C 424.97 441.02 444.06 440.88 462.02 445.02 C 469.12 446.68 476.02 449.23 482.29 452.96 C 481.12 457.63 479.08 462.01 477.33 466.48 C 475.63 470.89 474.48 475.49 472.53 479.80 C 463.79 473.93 453.43 470.95 443.03 469.91 C 431.36 469.33 418.82 471.92 409.88 479.86 C 399.59 488.80 394.85 502.64 394.78 516.02 C 394.55 527.35 398.02 538.92 405.22 547.76 C 411.30 554.45 419.57 559.18 428.51 560.71 C 444.26 563.31 460.93 560.17 474.54 551.78 C 476.74 560.63 478.75 569.53 481.08 578.35 C 467.93 585.67 453.01 590.03 437.91 590.01 C 416.89 591.06 394.60 584.73 379.64 569.38 C 369.04 559.04 362.80 544.88 360.77 530.33 C 358.55 510.52 360.81 489.16 372.36 472.35 C 380.46 459.91 393.11 450.67 407.28 446.37 Z" />
<path fill="#008de9" opacity="1.00" d=" M 557.61 442.71 C 573.72 440.97 590.68 442.44 605.37 449.74 C 620.36 456.72 631.49 470.29 637.89 485.30 C 643.41 497.96 645.04 512.13 643.28 525.78 C 641.44 543.32 633.42 560.38 620.18 572.17 C 606.33 584.54 587.43 590.45 569.01 589.86 C 549.04 590.52 528.30 583.25 514.65 568.32 C 501.15 554.65 495.95 534.80 496.12 516.02 C 495.91 498.79 500.67 481.10 511.65 467.58 C 522.67 453.38 539.77 444.40 557.61 442.71 M 562.23 470.28 C 549.41 471.78 539.19 481.88 534.40 493.41 C 528.59 507.69 528.44 524.24 534.24 538.55 C 536.97 545.56 541.89 551.62 547.94 556.04 C 556.63 562.09 567.89 563.53 578.14 561.57 C 588.86 559.34 598.14 551.94 603.23 542.33 C 609.78 528.94 611.02 512.98 606.35 498.80 C 603.32 489.63 597.98 480.72 589.63 475.50 C 581.67 470.13 571.57 468.74 562.23 470.28 Z" />
<path fill="#008de9" opacity="1.00" d=" M 893.44 442.68 C 910.34 440.78 928.57 443.12 942.65 453.30 C 953.33 460.60 960.52 472.02 964.71 484.09 C 968.78 497.22 969.80 511.24 968.02 524.85 C 934.24 524.85 900.46 524.82 866.68 524.88 C 867.70 532.05 869.30 539.41 873.52 545.45 C 879.84 555.09 890.64 561.02 901.83 562.96 C 915.11 564.89 928.83 562.94 941.32 558.17 C 946.49 556.28 951.16 553.33 956.10 550.93 C 958.92 559.46 959.75 568.47 961.97 577.15 C 949.39 584.91 934.66 588.50 920.06 589.78 C 909.40 590.29 898.60 590.47 888.07 588.51 C 874.44 585.91 861.29 579.44 851.79 569.19 C 840.24 557.14 834.39 540.50 833.21 524.06 C 833.17 516.36 832.60 508.58 834.16 500.99 C 836.49 485.64 843.81 470.92 855.20 460.29 C 865.34 450.15 879.24 444.11 893.44 442.68 M 879.11 476.13 C 871.59 483.23 868.65 493.69 867.33 503.63 C 875.89 503.95 884.49 504.31 893.06 503.87 C 907.44 503.76 921.84 504.08 936.22 503.67 C 935.25 495.26 933.75 486.44 928.51 479.52 C 923.92 472.64 916.07 468.12 907.85 467.44 C 897.70 466.19 886.30 468.36 879.11 476.13 Z" />
</g>
<g id="#0bd6e2fe">
<path fill="#0bd6e2" opacity="1.00" d=" M 1242.77 378.06 C 1253.77 378.16 1264.78 378.19 1275.79 378.05 C 1276.02 431.36 1275.71 484.69 1276.12 537.99 C 1276.02 554.31 1276.39 570.63 1276.91 586.94 C 1266.00 586.73 1255.08 587.12 1244.17 587.13 C 1244.15 581.49 1244.10 575.84 1244.07 570.21 C 1239.06 575.56 1234.06 581.15 1227.41 584.50 C 1219.53 589.32 1210.06 590.25 1201.03 589.90 C 1181.19 589.77 1161.71 578.74 1151.76 561.50 C 1140.73 543.53 1139.22 521.52 1141.75 501.05 C 1143.69 487.81 1149.15 475.10 1157.46 464.60 C 1162.14 458.55 1168.33 453.90 1174.74 449.85 C 1186.44 442.62 1200.76 440.96 1214.20 442.69 C 1225.37 443.65 1235.76 449.79 1242.77 458.41 C 1243.49 452.61 1242.66 446.81 1242.81 441.00 C 1242.70 420.02 1242.91 399.04 1242.77 378.06 M 1204.32 470.26 C 1193.59 472.51 1184.98 480.93 1180.74 490.81 C 1176.46 500.94 1175.16 512.20 1176.19 523.10 C 1177.03 532.04 1179.52 540.99 1184.58 548.49 C 1188.95 554.85 1195.41 560.01 1203.02 561.83 C 1213.49 564.03 1224.93 561.88 1233.50 555.33 C 1237.12 552.51 1241.12 549.39 1242.74 544.99 C 1242.85 527.01 1242.75 509.01 1242.76 491.03 C 1243.21 485.22 1238.41 481.03 1234.38 477.66 C 1225.82 471.40 1214.84 468.28 1204.32 470.26 Z" />
<path fill="#0bd6e2" opacity="1.00" d=" M 1027.72 399.67 C 1042.35 397.43 1057.35 397.58 1071.95 399.99 C 1085.74 402.83 1099.62 409.44 1107.67 421.45 C 1115.34 431.86 1117.33 445.51 1115.16 458.05 C 1113.10 468.78 1106.76 478.50 1097.87 484.84 C 1091.80 489.58 1084.41 491.97 1077.21 494.37 C 1088.58 496.22 1100.12 500.27 1108.27 508.76 C 1113.46 513.77 1117.09 520.35 1118.40 527.46 C 1120.38 538.32 1119.11 549.99 1113.69 559.72 C 1107.51 570.96 1096.82 579.34 1084.93 583.88 C 1072.90 588.62 1059.85 590.26 1046.98 589.88 C 1032.61 590.21 1018.11 588.25 1004.51 583.51 C 1000.54 581.87 996.20 581.03 992.63 578.55 C 993.57 568.98 994.61 559.42 995.24 549.83 C 1006.10 555.36 1017.92 559.20 1030.10 560.24 C 1040.49 561.71 1051.17 561.81 1061.49 559.71 C 1069.91 557.86 1078.31 552.91 1081.68 544.61 C 1085.10 536.23 1083.80 525.39 1076.86 519.12 C 1072.85 514.77 1067.07 512.64 1061.38 511.61 C 1050.17 508.87 1038.57 510.14 1027.16 509.85 C 1027.15 500.80 1027.21 491.75 1027.17 482.71 C 1040.30 481.99 1054.12 483.11 1066.38 477.38 C 1073.40 473.62 1079.25 466.91 1080.59 458.89 C 1082.11 452.43 1080.37 445.55 1076.97 439.98 C 1072.58 433.13 1064.55 429.90 1056.95 428.12 C 1049.07 426.61 1040.95 426.43 1033.04 427.83 C 1019.79 429.97 1006.61 433.93 995.29 441.32 C 994.91 431.51 994.33 421.70 993.58 411.91 C 1004.14 405.92 1015.67 401.50 1027.72 399.67 Z" />
<path fill="#0bd6e2" opacity="1.00" d=" M 257.98 511.66 C 282.63 493.32 307.34 475.04 332.45 457.34 C 331.82 460.69 329.79 463.46 328.10 466.33 C 319.03 481.56 310.10 496.87 300.98 512.07 C 310.82 528.88 320.62 545.72 330.60 562.45 C 331.47 563.97 332.12 565.61 332.62 567.30 C 307.64 548.89 282.72 530.39 257.98 511.66 Z" />
</g>
</svg>
